# xmcd
#
# Track frame offsets: 
#        182
#        14762
#        26482
#        38345
#        49932
#        59815
#        70382
#        85392
#        97942
#        109860
#        123730
#        138592
#        147500
#        160975
#        174640
#        186332
#        195315
#        206150
#
# Disc length: 2900 seconds
#
# Revision: 1
# Processed by: cddbd v1.5.2PL0 Copyright (c) Steve Scherf et al.
# Submitted via: ExactAudioCopy v1.0b2
#
DISCID=130b5212
DTITLE=Willie Nelson - Country on my mind
DYEAR=1900
DGENRE=Country
TTITLE0=Will You Remember Mine
TTITLE1=Some Other Time
TTITLE2=I Hope So
TTITLE3=Is There Something On Your Mind
TTITLE4=Broken Promises
TTITLE5=Blame It On The Times
TTITLE6=Face Of a Fighter
TTITLE7=Shelter Of Your Arms
TTITLE8=End Of Understanding
TTITLE9=Home Is Where Your Happy
TTITLE10=And So Will You My Love
TTITLE11=Waitng Time
TTITLE12=No Tomorrow In Sight
TTITLE13=Everything But You
TTITLE14=Happiness Lives Next Door
TTITLE15=Right From Wrong
TTITLE16=Go Away
TTITLE17=I'll Stay Around
EXTD=
EXTT0=
EXTT1=
EXTT2=
EXTT3=
EXTT4=
EXTT5=
EXTT6=
EXTT7=
EXTT8=
EXTT9=
EXTT10=
EXTT11=
EXTT12=
EXTT13=
EXTT14=
EXTT15=
EXTT16=
EXTT17=
PLAYORDER=
